<svg id="Layer_1" data-name="Layer 1" xmlns="http://www.w3.org/2000/svg" viewBox="0 0 1159.61424 1080"><defs><style>.cls-1{fill:#fff;}.cls-2{fill:#dbaeff;}</style></defs><rect class="cls-1" x="379.85078" y="286.42305" width="172.56335" height="86.10445" rx="43.05218"/><circle class="cls-2" cx="299.16424" cy="329.47527" r="43.05223"/><path class="cls-1" d="M754.38,286.423h86.459a43.05218,43.05218,0,0,1,43.05218,43.05218v.00009a43.05219,43.05219,0,0,1-43.05219,43.05219H754.38a43.05218,43.05218,0,0,1-43.05218-43.05218v-.00009A43.05218,43.05218,0,0,1,754.38,286.423Z"/><circle class="cls-2" cx="630.64125" cy="329.47527" r="43.05223"/><rect class="cls-1" x="371.46187" y="71.10526" width="172.56335" height="86.10445" rx="43.05218"/><circle class="cls-2" cx="290.77533" cy="114.15749" r="43.05223"/><rect class="cls-1" x="702.93887" y="71.10526" width="172.56335" height="86.10445" rx="43.05218"/><circle class="cls-2" cx="622.25234" cy="114.15749" r="43.05223"/><rect class="cls-1" x="380.70755" y="501.74083" width="172.56335" height="86.10445" rx="43.05218"/><circle class="cls-2" cx="300.02102" cy="544.79306" r="43.05223"/><path class="cls-1" d="M755.23674,501.74083h86.459A43.05218,43.05218,0,0,1,884.7479,544.793v.00009a43.05219,43.05219,0,0,1-43.05219,43.05219h-86.459a43.05218,43.05218,0,0,1-43.05218-43.05218V544.793A43.05218,43.05218,0,0,1,755.23674,501.74083Z"/><circle class="cls-2" cx="631.49802" cy="544.79306" r="43.05223"/><path class="cls-1" d="M426.25914,717.05862h86.459a43.05218,43.05218,0,0,1,43.05218,43.05218v.00009a43.05219,43.05219,0,0,1-43.05219,43.05219h-86.459A43.05218,43.05218,0,0,1,383.207,760.11089v-.00009a43.05218,43.05218,0,0,1,43.05218-43.05218Z"/><circle class="cls-2" cx="302.52043" cy="760.11084" r="43.05223"/><path class="cls-1" d="M432.25914,923.1587h86.459a43.05218,43.05218,0,0,1,43.05218,43.05218v.00009a43.05219,43.05219,0,0,1-43.05219,43.05219h-86.459A43.05219,43.05219,0,0,1,389.207,966.211v-.00009A43.05218,43.05218,0,0,1,432.25914,923.1587Z"/><circle class="cls-2" cx="308.52043" cy="966.21093" r="43.05223"/><rect class="cls-1" x="714.68396" y="717.05862" width="172.56335" height="86.10445" rx="43.05218"/><circle class="cls-2" cx="633.99743" cy="760.11084" r="43.05223"/><rect class="cls-1" x="720.68396" y="923.1587" width="172.56335" height="86.10445" rx="43.05218"/><circle class="cls-2" cx="639.99743" cy="966.21093" r="43.05223"/></svg>